<svg 
 xmlns="http://www.w3.org/2000/svg"
 xmlns:xlink="http://www.w3.org/1999/xlink"
 width="34px" height="36px">
<path fill-rule="evenodd"  opacity="0.502" fill="rgb(0, 0, 0)"
 d="M33.200,36.000 L0.800,36.000 C0.468,36.000 0.200,35.732 0.200,35.400 L0.200,9.600 L0.200,3.000 C0.200,2.668 0.468,2.400 0.800,2.400 L5.000,2.400 L5.000,0.600 C5.000,0.268 5.268,-0.000 5.600,-0.000 L9.800,-0.000 C10.132,-0.000 10.400,0.268 10.400,0.600 L10.400,2.400 L23.600,2.400 L23.600,0.600 C23.600,0.268 23.868,-0.000 24.200,-0.000 L28.400,-0.000 C28.732,-0.000 29.000,0.268 29.000,0.600 L29.000,2.400 L33.200,2.400 C33.532,2.400 33.800,2.668 33.800,3.000 L33.800,9.600 L33.800,35.400 C33.800,35.732 33.532,36.000 33.200,36.000 ZM9.200,3.000 L9.200,1.200 L6.200,1.200 L6.200,3.000 L6.200,4.800 L9.200,4.800 L9.200,3.000 ZM27.800,3.000 L27.800,1.200 L24.800,1.200 L24.800,3.000 L24.800,4.800 L27.800,4.800 L27.800,3.000 ZM32.600,3.600 L29.000,3.600 L29.000,5.400 C29.000,5.732 28.732,6.000 28.400,6.000 L24.200,6.000 C23.868,6.000 23.600,5.732 23.600,5.400 L23.600,3.600 L10.400,3.600 L10.400,5.400 C10.400,5.732 10.132,6.000 9.800,6.000 L5.600,6.000 C5.268,6.000 5.000,5.732 5.000,5.400 L5.000,3.600 L1.400,3.600 L1.400,9.000 L32.600,9.000 L32.600,3.600 ZM32.600,10.200 L1.400,10.200 L1.400,34.800 L32.600,34.800 L32.600,10.200 ZM12.200,13.800 L16.400,13.800 L17.600,13.800 L21.800,13.800 L23.000,13.800 L28.400,13.800 L28.400,19.200 L28.400,20.400 L28.400,24.600 L28.400,25.800 L28.400,31.200 L23.000,31.200 L21.800,31.200 L17.600,31.200 L16.400,31.200 L12.200,31.200 L11.000,31.200 L5.600,31.200 L5.600,25.800 L5.600,24.600 L5.600,20.400 L5.600,19.200 L5.600,13.800 L11.000,13.800 L12.200,13.800 ZM23.000,30.000 L27.200,30.000 L27.200,25.800 L23.000,25.800 L23.000,30.000 ZM23.000,24.600 L27.200,24.600 L27.200,20.400 L23.000,20.400 L23.000,24.600 ZM23.000,19.200 L27.200,19.200 L27.200,15.000 L23.000,15.000 L23.000,19.200 ZM17.600,30.000 L21.800,30.000 L21.800,25.800 L17.600,25.800 L17.600,30.000 ZM17.600,24.600 L21.800,24.600 L21.800,20.400 L17.600,20.400 L17.600,24.600 ZM17.600,19.200 L21.800,19.200 L21.800,15.000 L17.600,15.000 L17.600,19.200 ZM12.200,30.000 L16.400,30.000 L16.400,25.800 L12.200,25.800 L12.200,30.000 ZM12.200,24.600 L16.400,24.600 L16.400,20.400 L12.200,20.400 L12.200,24.600 ZM12.200,19.200 L16.400,19.200 L16.400,15.000 L12.200,15.000 L12.200,19.200 ZM6.800,30.000 L11.000,30.000 L11.000,25.800 L6.800,25.800 L6.800,30.000 ZM6.800,24.600 L11.000,24.600 L11.000,20.400 L6.800,20.400 L6.800,24.600 ZM6.800,19.200 L11.000,19.200 L11.000,15.000 L6.800,15.000 L6.800,19.200 Z"/>
</svg>