<svg 
 xmlns="http://www.w3.org/2000/svg"
 xmlns:xlink="http://www.w3.org/1999/xlink"
 width="36px" height="36px">
<path fill-rule="evenodd"  opacity="0.502" fill="rgb(0, 0, 0)"
 d="M35.102,34.737 C35.099,34.742 35.098,34.748 35.094,34.754 C35.090,34.759 35.083,34.761 35.078,34.767 C34.749,35.202 34.235,35.459 33.689,35.460 L2.077,35.460 C1.533,35.458 1.022,35.203 0.693,34.770 C0.687,34.763 0.678,34.758 0.674,34.753 C0.670,34.749 0.670,34.742 0.666,34.737 C0.444,34.438 0.323,34.076 0.323,33.703 L0.323,13.789 C0.323,13.777 0.330,13.766 0.330,13.754 C0.333,13.714 0.341,13.675 0.354,13.637 C0.362,13.602 0.373,13.568 0.387,13.536 C0.403,13.504 0.423,13.474 0.445,13.446 C0.468,13.413 0.494,13.383 0.523,13.355 C0.533,13.347 0.537,13.336 0.547,13.328 L6.175,8.954 L6.175,4.420 C6.175,3.449 6.961,2.663 7.931,2.663 L14.275,2.663 L16.816,0.690 C17.443,0.200 18.324,0.200 18.951,0.690 L21.491,2.663 L27.835,2.663 C28.805,2.663 29.592,3.450 29.592,4.420 L29.592,8.954 L35.222,13.328 C35.231,13.336 35.235,13.347 35.245,13.355 C35.274,13.383 35.300,13.413 35.323,13.446 C35.345,13.474 35.365,13.504 35.381,13.536 C35.395,13.568 35.407,13.602 35.415,13.637 C35.427,13.675 35.435,13.715 35.439,13.755 C35.439,13.768 35.446,13.778 35.446,13.791 L35.446,33.703 C35.445,34.076 35.324,34.438 35.102,34.737 ZM33.542,34.289 L18.230,22.394 C18.026,22.231 17.737,22.231 17.532,22.394 L2.225,34.289 L33.542,34.289 ZM18.230,1.614 C18.026,1.451 17.736,1.451 17.532,1.614 L16.185,2.663 L19.581,2.663 L18.230,1.614 ZM23.947,21.223 L33.710,13.638 L29.591,10.436 L29.591,14.962 C29.591,15.285 29.329,15.547 29.006,15.547 C28.683,15.547 28.421,15.285 28.421,14.962 L28.421,4.420 C28.421,4.096 28.159,3.834 27.835,3.834 L7.931,3.834 C7.608,3.834 7.346,4.096 7.346,4.420 L7.346,14.962 C7.346,15.285 7.084,15.547 6.760,15.547 C6.437,15.547 6.175,15.285 6.175,14.962 L6.175,10.436 L2.056,13.638 L11.802,21.209 C12.058,21.407 12.105,21.775 11.906,22.031 C11.708,22.287 11.340,22.333 11.085,22.135 L1.492,14.683 L1.492,33.376 L16.816,21.469 C17.444,20.980 18.323,20.980 18.951,21.469 L34.275,33.376 L34.275,14.683 L24.665,22.148 C24.500,22.279 24.277,22.312 24.081,22.233 C23.886,22.154 23.748,21.976 23.720,21.767 C23.692,21.558 23.779,21.350 23.947,21.223 ZM20.250,14.623 C19.092,15.686 17.368,15.850 16.030,15.024 C14.693,14.198 14.066,12.583 14.497,11.071 C14.928,9.558 16.311,8.516 17.883,8.520 C18.206,8.520 18.469,8.782 18.469,9.105 C18.469,9.429 18.206,9.691 17.883,9.691 C16.590,9.691 15.542,10.740 15.542,12.034 C15.542,13.327 16.590,14.376 17.883,14.376 C19.176,14.376 20.225,13.327 20.225,12.034 C20.225,11.710 20.487,11.448 20.810,11.448 C21.134,11.448 21.396,11.710 21.396,12.034 L21.396,14.376 C21.396,15.023 21.920,15.548 22.566,15.548 C23.213,15.548 23.737,15.023 23.737,14.376 L23.737,12.034 C23.737,8.799 21.116,6.177 17.883,6.177 C14.650,6.177 12.029,8.799 12.029,12.034 C12.029,15.268 14.650,17.890 17.883,17.890 C18.206,17.890 18.469,18.152 18.469,18.476 C18.469,18.799 18.206,19.062 17.883,19.062 C14.003,19.062 10.858,15.915 10.858,12.034 C10.858,8.152 14.003,5.005 17.883,5.005 C21.763,5.005 24.908,8.152 24.908,12.034 L24.908,14.376 C24.912,15.621 23.939,16.651 22.696,16.717 C21.453,16.782 20.377,15.861 20.250,14.623 Z"/>
</svg>