<svg 
 xmlns="http://www.w3.org/2000/svg"
 xmlns:xlink="http://www.w3.org/1999/xlink"
 width="36px" height="36px">
<path fill-rule="evenodd"  opacity="0.502" fill="rgb(0, 0, 0)"
 d="M35.669,30.354 L33.877,33.334 C33.327,34.271 32.435,34.958 31.390,35.252 C30.491,35.495 29.564,35.616 28.633,35.612 C24.587,35.612 18.702,33.485 10.796,25.574 C0.857,15.628 0.050,8.877 1.123,4.965 C1.417,3.919 2.103,3.027 3.040,2.476 L6.019,0.685 C6.967,0.115 8.195,0.392 8.808,1.313 L13.559,8.443 C14.157,9.348 13.960,10.561 13.106,11.230 L10.440,13.306 C10.088,13.575 9.988,14.062 10.205,14.448 L10.422,14.843 C11.135,16.151 12.025,17.781 15.306,21.065 C18.587,24.350 20.215,25.238 21.524,25.952 L21.919,26.170 C22.304,26.385 22.789,26.282 23.056,25.931 L25.132,23.260 C25.800,22.406 27.012,22.209 27.916,22.808 L35.041,27.562 C35.963,28.176 36.239,29.406 35.669,30.354 ZM34.386,28.541 L27.261,23.786 C26.869,23.527 26.343,23.612 26.053,23.982 L23.978,26.651 C23.357,27.464 22.234,27.696 21.343,27.196 L20.957,26.983 C19.583,26.233 17.873,25.300 14.470,21.895 C11.067,18.491 10.135,16.779 9.385,15.403 L9.173,15.018 C8.674,14.126 8.905,13.002 9.717,12.381 L12.384,10.305 C12.755,10.014 12.840,9.488 12.580,9.096 L10.414,5.844 L7.833,1.967 C7.567,1.567 7.034,1.447 6.623,1.694 L3.643,3.483 C2.966,3.879 2.469,4.521 2.255,5.276 C1.264,8.887 2.085,15.196 11.626,24.744 C21.167,34.291 27.472,35.113 31.081,34.121 C31.834,33.907 32.475,33.410 32.870,32.733 L34.658,29.752 C34.905,29.340 34.786,28.807 34.386,28.541 ZM20.710,12.132 C22.976,12.134 24.813,13.973 24.816,16.241 C24.816,16.565 24.553,16.828 24.229,16.828 C23.905,16.828 23.643,16.565 23.643,16.241 C23.641,14.621 22.329,13.308 20.710,13.306 C20.386,13.306 20.123,13.043 20.123,12.719 C20.123,12.395 20.386,12.132 20.710,12.132 ZM20.710,8.610 C24.919,8.615 28.331,12.028 28.336,16.241 C28.336,16.565 28.073,16.828 27.749,16.828 C27.425,16.828 27.163,16.565 27.163,16.241 C27.158,12.677 24.272,9.788 20.710,9.784 C20.386,9.784 20.123,9.521 20.123,9.197 C20.123,8.873 20.386,8.610 20.710,8.610 ZM31.269,16.828 C30.945,16.828 30.682,16.565 30.682,16.241 C30.676,10.732 26.215,6.268 20.710,6.262 C20.386,6.262 20.123,5.999 20.123,5.675 C20.123,5.351 20.386,5.088 20.710,5.088 C26.862,5.095 31.849,10.084 31.855,16.241 C31.855,16.565 31.593,16.828 31.269,16.828 Z"/>
</svg>