<svg 
 xmlns="http://www.w3.org/2000/svg"
 xmlns:xlink="http://www.w3.org/1999/xlink"
 width="28px" height="36px">
<path fill-rule="evenodd"  opacity="0.502" fill="rgb(0, 0, 0)"
 d="M24.808,25.733 L19.077,22.868 C18.536,22.597 18.200,22.054 18.200,21.449 L18.200,19.420 C18.337,19.252 18.482,19.061 18.631,18.850 C19.375,17.799 19.971,16.631 20.404,15.370 C21.250,14.982 21.800,14.145 21.800,13.200 L21.800,10.800 C21.800,10.222 21.584,9.662 21.200,9.225 L21.200,6.034 C21.234,5.703 21.366,3.739 19.945,2.119 C18.712,0.713 16.713,-0.000 14.000,-0.000 C11.287,-0.000 9.288,0.713 8.055,2.118 C6.634,3.738 6.766,5.703 6.800,6.034 L6.800,9.225 C6.416,9.662 6.200,10.222 6.200,10.800 L6.200,13.200 C6.200,13.930 6.532,14.611 7.098,15.065 C7.648,17.241 8.798,18.881 9.200,19.407 L9.200,21.393 C9.200,21.974 8.883,22.506 8.374,22.785 L3.021,25.705 C1.281,26.654 0.200,28.475 0.200,30.457 L0.200,32.400 C0.200,35.247 9.227,36.000 14.000,36.000 C18.773,36.000 27.800,35.247 27.800,32.400 L27.800,30.574 C27.800,28.511 26.653,26.656 24.808,25.733 ZM26.600,32.400 C26.600,33.214 22.153,34.800 14.000,34.800 C5.847,34.800 1.400,33.214 1.400,32.400 L1.400,30.457 C1.400,28.915 2.241,27.497 3.595,26.759 L8.948,23.839 C9.844,23.350 10.400,22.412 10.400,21.393 L10.400,18.982 L10.260,18.815 C10.246,18.797 8.775,17.018 8.214,14.576 L8.160,14.338 L7.955,14.206 C7.608,13.982 7.400,13.606 7.400,13.200 L7.400,10.800 C7.400,10.463 7.543,10.150 7.802,9.915 L8.000,9.737 L8.000,6.000 L7.995,5.921 C7.993,5.905 7.789,4.242 8.958,2.909 C9.952,1.775 11.649,1.200 14.000,1.200 C16.343,1.200 18.036,1.770 19.032,2.897 C20.200,4.217 20.007,5.907 20.005,5.921 L20.000,9.737 L20.198,9.915 C20.457,10.150 20.600,10.463 20.600,10.800 L20.600,13.200 C20.600,13.724 20.257,14.182 19.747,14.339 L19.448,14.431 L19.352,14.728 C18.951,15.977 18.379,17.130 17.652,18.156 C17.473,18.409 17.300,18.632 17.149,18.803 L17.000,18.974 L17.000,21.449 C17.000,22.511 17.590,23.465 18.540,23.941 L24.271,26.806 C25.708,27.524 26.600,28.968 26.600,30.574 L26.600,32.400 Z"/>
</svg>